<svg width="30" height="30" viewBox="0 0 30 30" fill="none" xmlns="http://www.w3.org/2000/svg">
<path d="M15 0C12.0333 0 9.13319 0.879735 6.66645 2.52796C4.19971 4.17618 2.27713 6.51886 1.14181 9.25975C0.00649929 12.0006 -0.290551 15.0166 0.288227 17.9263C0.867006 20.8361 2.29562 23.5088 4.3934 25.6066C6.49119 27.7044 9.16393 29.133 12.0736 29.7118C14.9834 30.2906 17.9994 29.9935 20.7403 28.8582C23.4811 27.7229 25.8238 25.8003 27.472 23.3335C29.1203 20.8668 30 17.9667 30 15C30 11.0217 28.4196 7.20644 25.6066 4.3934C22.7936 1.58035 18.9783 0 15 0ZM22.3688 10.275L19.9125 21.8812C19.725 22.7062 19.2375 22.8937 18.5438 22.5187L14.7938 19.7437L12.9188 21.4875C12.8304 21.6029 12.717 21.6966 12.587 21.7616C12.4571 21.8266 12.314 21.8611 12.1688 21.8625L12.4313 18.1125L19.3688 11.8312C19.6875 11.5687 19.3688 11.4187 18.9188 11.6812L10.4063 17.025L6.65626 15.8625C5.85001 15.6187 5.83125 15.0562 6.825 14.6812L21.2813 9.05625C21.9938 8.85 22.5938 9.2625 22.3688 10.275Z" fill="#5B66E3"/>
</svg>
