<?xml version="1.0" encoding="UTF-8"?>
<!DOCTYPE svg PUBLIC "-//W3C//DTD SVG 1.1//EN" "http://www.w3.org/Graphics/SVG/1.1/DTD/svg11.dtd">
<!-- Creator: CorelDRAW 2017 -->
<svg xmlns="http://www.w3.org/2000/svg" xml:space="preserve" width="26.4583mm" height="26.4583mm" version="1.1" style="shape-rendering:geometricPrecision; text-rendering:geometricPrecision; image-rendering:optimizeQuality; fill-rule:evenodd; clip-rule:evenodd"
viewBox="0 0 2646 2646"
 xmlns:xlink="http://www.w3.org/1999/xlink">
 <defs>
  <style type="text/css">
   <![CDATA[
    .fil3 {fill:none}
    .fil2 {fill:#793FF6;fill-opacity:0.701961}
    .fil1 {fill:#85B7F0;fill-opacity:0.701961}
    .fil0 {fill:url(#id0);fill-opacity:0.701961}
   ]]>
  </style>
  <linearGradient id="id0" gradientUnits="userSpaceOnUse" x1="406" y1="1342" x2="406" y2="92">
   <stop offset="0" style="stop-opacity:1; stop-color:#793FF6"/>
   <stop offset="1" style="stop-opacity:1; stop-color:#85BBF0"/>
  </linearGradient>
 </defs>
 <g id="Layer_x0020_1">
  <metadata id="CorelCorpID_0Corel-Layer"/>
  <path class="fil0" d="M1037 545l56 -6c0,-597 -871,-597 -871,5 78,0 -129,-7 -129,161 0,89 72,161 161,161 15,0 43,0 43,-15 0,-112 0,-180 -2,-293 0,-12 0,-12 -15,-12 273,-549 694,-261 756,-2 -13,1 -28,4 -28,14 -1,113 -1,181 -2,293 0,6 4,9 10,11 -6,106 -72,176 -248,217 -6,-23 -27,-41 -52,-41 -30,0 -54,24 -54,54 0,52 66,73 97,32l0 0c329,-82 304,-105 301,-258 84,-5 151,-75 151,-161 0,-95 -81,-168 -175,-161zm352 474l1032 0c87,0 159,71 159,159l0 820c0,87 -71,159 -159,159l-663 0c-5,0 -14,-5 -16,0 -167,397 -609,378 -567,361 291,-119 228,-281 230,-361l-15 0c-87,0 -159,-71 -159,-159l0 -820c0,-87 71,-159 159,-159zm41 63l950 0c80,0 146,65 146,144l0 744c0,79 -66,144 -146,144l-610 0c-5,0 -88,-2 -90,3 -143,296 -251,260 -238,225 66,-185 38,-153 40,-225l-51 -3c-80,-5 -146,-65 -146,-144l0 -744c0,-79 66,-144 146,-144zm-259 387l1 -2m-732 -289c158,141 320,141 437,0 72,104 202,90 281,180 3,4 4,-3 0,0 -76,58 -93,210 -89,315 0,3 -678,0 -968,0 -37,-430 226,-330 339,-495zm217 -859c169,0 307,184 307,411 0,64 1,131 -30,178 -88,132 -378,-51 -342,221 1,5 -9,-1 -13,-3 -128,-48 -227,-207 -228,-396 0,-227 137,-411 307,-411z"/>
  <path class="fil1" d="M1516 1177c61,0 111,50 111,111 0,61 -50,111 -111,111 -61,0 -111,-50 -111,-111 0,-61 50,-111 111,-111zm0 25c48,0 86,39 86,86 0,48 -39,86 -86,86 -48,0 -86,-39 -86,-86 0,-48 39,-86 86,-86z"/>
  <path class="fil1" d="M1516 1490c61,0 111,50 111,111 0,61 -50,111 -111,111 -61,0 -111,-50 -111,-111 0,-61 50,-111 111,-111zm0 25c48,0 86,39 86,86 0,48 -39,86 -86,86 -48,0 -86,-39 -86,-86 0,-48 39,-86 86,-86z"/>
  <path class="fil1" d="M1516 1789c61,0 111,50 111,111 0,61 -50,111 -111,111 -61,0 -111,-50 -111,-111 0,-61 50,-111 111,-111zm0 25c48,0 86,39 86,86 0,48 -39,86 -86,86 -48,0 -86,-39 -86,-86 0,-48 39,-86 86,-86z"/>
  <path class="fil2" d="M1773 1230l569 0c22,0 40,18 40,40l0 0c0,22 -18,40 -40,40l-569 0c-22,0 -40,-18 -40,-40l0 0c0,-22 18,-40 40,-40z"/>
  <path class="fil2" d="M1773 1548l569 0c22,0 40,18 40,40l0 0c0,22 -18,40 -40,40l-569 0c-22,0 -40,-18 -40,-40l0 0c0,-22 18,-40 40,-40z"/>
  <path class="fil2" d="M1773 1852l569 0c22,0 40,18 40,40l0 0c0,22 -18,40 -40,40l-569 0c-22,0 -40,-18 -40,-40l0 0c0,-22 18,-40 40,-40z"/>
  <polygon class="fil3" points="0,0 2646,0 2646,2646 0,2646 "/>
 </g>
</svg>
