<?xml version="1.0" encoding="UTF-8"?>
<!DOCTYPE svg PUBLIC "-//W3C//DTD SVG 1.1//EN" "http://www.w3.org/Graphics/SVG/1.1/DTD/svg11.dtd">
<!-- Creator: CorelDRAW 2017 -->
<svg xmlns="http://www.w3.org/2000/svg" xml:space="preserve" width="26.4583mm" height="26.4583mm" version="1.1" style="shape-rendering:geometricPrecision; text-rendering:geometricPrecision; image-rendering:optimizeQuality; fill-rule:evenodd; clip-rule:evenodd"
viewBox="0 0 2646 2646"
 xmlns:xlink="http://www.w3.org/1999/xlink">
 <defs>
  <style type="text/css">
   <![CDATA[
    .fil1 {fill:none}
    .fil2 {fill:#85B7F0;fill-opacity:0.701961}
    .fil0 {fill:url(#id0);fill-opacity:0.701961}
   ]]>
  </style>
  <linearGradient id="id0" gradientUnits="userSpaceOnUse" x1="820" y1="2553" x2="820" y2="238">
   <stop offset="0" style="stop-opacity:1; stop-color:#793FF6"/>
   <stop offset="1" style="stop-opacity:1; stop-color:#85BBF0"/>
  </linearGradient>
 </defs>
 <g id="Layer_x0020_1">
  <metadata id="CorelCorpID_0Corel-Layer"/>
  <path class="fil0" d="M311 238l1018 0c135,0 245,115 245,255l0 1805c0,140 -110,255 -245,255l-1018 0c-135,0 -245,-115 -245,-255l0 -1805c0,-140 110,-255 245,-255zm1342 1894l502 13 -201 250 -302 8 0 -271zm0 -418l706 13 -201 250 -497 0 -8 -263zm0 -451l933 13 -201 250 -732 12 0 -275zm-1295 986l424 0c28,0 51,24 51,53l0 12c0,29 -23,53 -51,53l-424 0c-28,0 -51,-24 -51,-53l0 -12c0,-29 23,-53 51,-53zm0 -234l424 0c28,0 51,24 51,53l0 12c0,29 -23,53 -51,53l-424 0c-28,0 -51,-24 -51,-53l0 -12c0,-29 23,-53 51,-53zm0 -283l781 0c28,0 51,24 51,53l0 12c0,29 -23,53 -51,53l-781 0c-28,0 -51,-24 -51,-53l0 -12c0,-29 23,-53 51,-53zm-10 -289l927 0c28,0 51,24 51,53l0 12c0,29 -23,53 -51,53l-927 0c-28,0 -51,-24 -51,-53l0 -12c0,-29 23,-53 51,-53zm-3 -262l927 0c28,0 51,24 51,53l0 12c0,29 -23,53 -51,53l-927 0c-28,0 -51,-24 -51,-53l0 -12c0,-29 23,-53 51,-53zm-13 -250l927 0c28,0 51,24 51,53l0 12c0,29 -23,53 -51,53l-927 0c-28,0 -51,-24 -51,-53l0 -12c0,-29 23,-53 51,-53zm188 -384l610 0c28,0 51,24 51,53l0 12c0,29 -23,53 -51,53l-610 0c-28,0 -51,-24 -51,-53l0 -12c0,-29 23,-53 51,-53zm-145 -227l902 0c119,0 217,102 217,226l0 1725c0,124 -98,226 -217,226l-902 0c-119,0 -217,-102 -217,-226l0 -1725c0,-124 98,-226 217,-226z"/>
  <path class="fil1" d="M1164 1941c110,0 199,98 199,219 0,121 -89,219 -199,219 -110,0 -199,-98 -199,-219 0,-121 89,-219 199,-219z"/>
  <path class="fil2" d="M1167 1978c93,0 169,83 169,186 0,103 -76,186 -169,186 -93,0 -169,-83 -169,-186 0,-103 76,-186 169,-186zm0 41c73,0 132,65 132,145 0,80 -59,145 -132,145 -73,0 -132,-65 -132,-145 0,-80 59,-145 132,-145z"/>
  <path class="fil2" d="M1167 2082c41,0 75,37 75,83 0,46 -34,83 -75,83 -41,0 -75,-37 -75,-83 0,-46 34,-83 75,-83zm0 18c32,0 58,29 58,64 0,36 -26,64 -58,64 -32,0 -58,-29 -58,-64 0,-36 26,-64 58,-64z"/>
  <polygon class="fil1" points="0,0 2646,0 2646,2646 0,2646 "/>
 </g>
</svg>
