<?xml version="1.0" encoding="UTF-8"?>
<!DOCTYPE svg PUBLIC "-//W3C//DTD SVG 1.1//EN" "http://www.w3.org/Graphics/SVG/1.1/DTD/svg11.dtd">
<!-- Creator: CorelDRAW 2017 -->
<svg xmlns="http://www.w3.org/2000/svg" xml:space="preserve" width="26.4583mm" height="26.4583mm" version="1.1" style="shape-rendering:geometricPrecision; text-rendering:geometricPrecision; image-rendering:optimizeQuality; fill-rule:evenodd; clip-rule:evenodd"
viewBox="0 0 2646 2646"
 xmlns:xlink="http://www.w3.org/1999/xlink">
 <defs>
  <style type="text/css">
   <![CDATA[
    .fil0 {fill:none}
    .fil3 {fill:none}
    .fil1 {fill:#85B7F0;fill-opacity:0.701961}
    .fil2 {fill:url(#id0);fill-opacity:0.701961}
   ]]>
  </style>
  <linearGradient id="id0" gradientUnits="userSpaceOnUse" x1="1238" y1="2566" x2="1238" y2="84">
   <stop offset="0" style="stop-opacity:1; stop-color:#793FF6"/>
   <stop offset="1" style="stop-opacity:1; stop-color:#85BBF0"/>
  </linearGradient>
 </defs>
 <g id="Layer_x0020_1">
  <metadata id="CorelCorpID_0Corel-Layer"/>
  <rect class="fil0" width="2646" height="2646"/>
  <g id="_1865620994624">
   <path class="fil1" d="M1534 549c203,0 368,165 368,368 0,203 -165,368 -368,368 -203,0 -368,-165 -368,-368 0,-203 165,-368 368,-368zm0 82c158,0 286,128 286,286 0,158 -128,286 -286,286 -158,0 -286,-128 -286,-286 0,-158 128,-286 286,-286z"/>
   <path class="fil2" d="M1025 2183c99,0 179,86 179,192 0,106 -80,192 -179,192 -99,0 -179,-86 -179,-192 0,-106 80,-192 179,-192zm395 -2090l-15 163c-20,11 -199,86 -222,94 -75,-29 -69,-79 -147,-93 -22,10 -52,34 -78,61l0 4 -4 0c-23,24 -43,50 -52,70 14,78 64,72 93,147 -9,25 -82,201 -94,222l-162 13c-15,103 -12,117 -2,221l164 15c8,15 91,227 94,238 -31,33 -83,76 -93,130 5,11 14,25 25,38l1204 0c11,-14 20,-27 25,-38 -10,-59 -58,-87 -90,-132 54,-131 33,-45 95,-236l159 -14c16,-103 12,-117 2,-221l-161 -15 -96 -237c31,-37 82,-76 92,-131 -19,-42 -92,-115 -134,-134 -54,10 -96,61 -130,93l-238 -94 -13 -162c-103,-15 -118,-12 -221,-1zm-1228 873l236 0 10 0 98 0c19,2 19,26 41,83 46,134 98,287 147,433l407 0 0 0 307 0 0 0 341 0 0 0 384 0c9,0 18,3 26,8l3 -8 125 0 -109 329 0 0 0 0c0,10 -3,20 -9,28l-71 214c2,6 4,12 4,18l0 0c0,25 -19,45 -44,46 -12,6 -26,7 -40,3l-2 -1c-2,-1 -4,-2 -6,-2l-259 0 0 0 -341 0 0 0 -307 0 0 0 -255 0c-2,1 -4,2 -6,2l-2 1c-14,4 -29,2 -41,-4 -13,-6 -23,-18 -28,-33l-340 -1025 -267 0c-25,0 -46,-21 -46,-46l0 0c0,-25 21,-46 46,-46zm1541 1059l0 -167 -248 0 0 167 248 0zm0 -260l0 -191 -248 0 0 191 248 0zm93 -191l0 191 271 0c19,-59 41,-123 63,-191l-334 0zm0 283l0 167 189 0c9,-32 27,-91 52,-167l-241 0zm-741 167l0 -167 -236 0c25,76 43,135 52,167l184 0zm0 -260l0 -191 -330 0c23,68 44,132 63,191l266 0zm93 -191l0 191 215 0 0 -191 -215 0zm0 283l0 167 215 0 0 -167 -215 0zm350 -1425c261,0 473,212 473,473 0,261 -212,473 -473,473 -261,0 -473,-212 -473,-473 0,-261 212,-473 473,-473zm345 1750c99,0 179,86 179,192 0,106 -80,192 -179,192 -99,0 -179,-86 -179,-192 0,-106 80,-192 179,-192zm0 71c62,0 112,54 112,121 0,67 -50,121 -112,121 -62,0 -112,-54 -112,-121 0,-67 50,-121 112,-121zm-847 0c62,0 112,54 112,121 0,67 -50,121 -112,121 -62,0 -112,-54 -112,-121 0,-67 50,-121 112,-121z"/>
   <path class="fil3" d="M1012 2254c62,0 112,54 112,121 0,67 -50,121 -112,121 -62,0 -112,-54 -112,-121 0,-67 50,-121 112,-121z"/>
  </g>
 </g>
</svg>
