<?xml version="1.0" encoding="UTF-8"?>
<!DOCTYPE svg PUBLIC "-//W3C//DTD SVG 1.1//EN" "http://www.w3.org/Graphics/SVG/1.1/DTD/svg11.dtd">
<!-- Creator: CorelDRAW 2017 -->
<svg xmlns="http://www.w3.org/2000/svg" xml:space="preserve" width="26.4583mm" height="26.4583mm" version="1.1" style="shape-rendering:geometricPrecision; text-rendering:geometricPrecision; image-rendering:optimizeQuality; fill-rule:evenodd; clip-rule:evenodd"
viewBox="0 0 2646 2646"
 xmlns:xlink="http://www.w3.org/1999/xlink">
 <defs>
  <style type="text/css">
   <![CDATA[
    .fil0 {fill:none}
    .fil2 {fill:url(#id2)}
    .fil1 {fill:url(#id3);fill-opacity:0.701961}
   ]]>
  </style>
   <mask id="id0">
  <linearGradient id="id1" gradientUnits="userSpaceOnUse" x1="-46" y1="-35" x2="959" y2="970">
   <stop offset="0" style="stop-opacity:1; stop-color:white"/>
   <stop offset="1" style="stop-opacity:0; stop-color:white"/>
  </linearGradient>
    <rect style="fill:url(#id1)" x="311" y="323" width="952" height="952"/>
   </mask>
  <linearGradient id="id2" gradientUnits="userSpaceOnUse" x1="787" y1="1262" x2="787" y2="336">
   <stop offset="0" style="stop-opacity:1; stop-color:#793FF6"/>
   <stop offset="1" style="stop-opacity:1; stop-color:#85BBF0"/>
  </linearGradient>
  <linearGradient id="id3" gradientUnits="userSpaceOnUse" xlink:href="#id2" x1="1336" y1="2560" x2="1336" y2="93">
  </linearGradient>
 </defs>
 <g id="Layer_x0020_1">
  <metadata id="CorelCorpID_0Corel-Layer"/>
  <rect class="fil0" width="2646" height="2646"/>
  <path class="fil1" d="M1704 1571c38,-16 89,-30 107,10l42 99 76 19 454 458 -14 79 77 -16 104 104c41,41 41,108 0,150l-56 56c-41,41 -109,40 -151,-1l-97 -97 4 -77 -90 -9 -449 -449 -29 -84 -68 -13c-45,-9 -38,-80 -20,-119l-197 -197c-6,-6 -10,-12 -13,-19 -137,118 -315,190 -510,190 -431,0 -781,-349 -781,-781 0,-431 349,-781 781,-781 431,0 781,349 781,781 0,184 -64,353 -170,486 8,3 16,7 22,14l198 198zm-831 -1399c387,0 701,314 701,701 0,387 -314,701 -701,701 -387,0 -701,-314 -701,-701 0,-387 314,-701 701,-701z"/>
  <path class="fil2" style="mask:url(#id0)" d="M787 336c256,0 463,207 463,463 0,256 -207,463 -463,463 -256,0 -463,-207 -463,-463 0,-256 207,-463 463,-463z"/>
 </g>
</svg>
