<?xml version="1.0" encoding="UTF-8"?>
<!DOCTYPE svg PUBLIC "-//W3C//DTD SVG 1.1//EN" "http://www.w3.org/Graphics/SVG/1.1/DTD/svg11.dtd">
<!-- Creator: CorelDRAW 2017 -->
<svg xmlns="http://www.w3.org/2000/svg" xml:space="preserve" width="26.4583mm" height="26.4583mm" version="1.1" style="shape-rendering:geometricPrecision; text-rendering:geometricPrecision; image-rendering:optimizeQuality; fill-rule:evenodd; clip-rule:evenodd"
viewBox="0 0 2646 2646"
 xmlns:xlink="http://www.w3.org/1999/xlink">
 <defs>
  <style type="text/css">
   <![CDATA[
    .fil0 {fill:none}
    .fil1 {fill:#85B7F0;fill-opacity:0.701961}
    .fil2 {fill:url(#id0);fill-opacity:0.701961}
   ]]>
  </style>
  <linearGradient id="id0" gradientUnits="userSpaceOnUse" x1="1318" y1="2584" x2="1318" y2="94">
   <stop offset="0" style="stop-opacity:1; stop-color:#793FF6"/>
   <stop offset="1" style="stop-opacity:1; stop-color:#85BBF0"/>
  </linearGradient>
 </defs>
 <g id="Layer_x0020_1">
  <metadata id="CorelCorpID_0Corel-Layer"/>
  <path class="fil0" d="M1735 1267c275,0 498,223 498,498 0,275 -223,498 -498,498 -275,0 -498,-223 -498,-498 0,-275 223,-498 498,-498z"/>
  <path class="fil1" d="M1743 1389c214,0 387,173 387,387 0,214 -173,387 -387,387 -214,0 -387,-173 -387,-387 0,-214 173,-387 387,-387zm0 86c166,0 301,135 301,301 0,166 -135,301 -301,301 -166,0 -301,-135 -301,-301 0,-166 135,-301 301,-301z"/>
  <path class="fil0" d="M661 359c198,0 359,161 359,359 0,198 -161,359 -359,359 -198,0 -359,-161 -359,-359 0,-198 161,-359 359,-359z"/>
  <path class="fil1" d="M667 447c154,0 279,125 279,279 0,154 -125,279 -279,279 -154,0 -279,-125 -279,-279 0,-154 125,-279 279,-279zm0 62c120,0 217,97 217,217 0,120 -97,217 -217,217 -120,0 -217,-97 -217,-217 0,-120 97,-217 217,-217z"/>
  <path class="fil2" d="M674 1873l-6 69c-8,5 -84,36 -93,40 -31,-12 -29,-33 -62,-39 -18,8 -48,39 -56,56 6,33 27,30 39,62 -4,11 -35,84 -39,93l-68 6c-6,43 -5,49 -1,93l69 6c3,7 38,95 39,100 -13,14 -35,32 -39,55 8,18 39,48 56,56 23,-4 40,-26 55,-39 19,5 70,29 100,40l6 67c43,6 49,5 93,1l6 -68c72,-23 69,-29 99,-40 18,13 31,34 56,38 18,-8 48,-39 56,-56 -4,-25 -25,-37 -38,-56 23,-55 14,-19 40,-99l67 -6c7,-43 5,-49 1,-93l-68 -6 -40 -100c13,-15 35,-32 39,-55 -8,-18 -39,-48 -56,-56 -23,4 -41,26 -55,39l-100 -40 -6 -68c-43,-6 -49,-5 -93,-1zm-94 -1772l-11 124c-15,8 -151,66 -168,72 -57,-22 -52,-60 -111,-71 -32,14 -87,70 -102,102 11,59 48,55 71,111 -7,19 -62,153 -71,168l-123 10c-12,78 -9,89 -1,168l124 11c6,12 69,172 71,181 -24,25 -63,58 -71,99 14,32 70,87 102,102 41,-8 73,-47 99,-70 35,9 126,52 181,73l10 121c78,12 89,9 168,1l11 -122c131,-42 124,-52 179,-72 33,24 56,61 100,69 32,-14 87,-70 102,-102 -8,-45 -44,-66 -69,-101 41,-99 25,-34 72,-179l121 -10c12,-78 9,-89 1,-168l-122 -11 -73 -180c24,-28 62,-58 70,-99 -14,-32 -70,-87 -102,-102 -41,7 -73,47 -99,70l-181 -71 -10 -123c-78,-12 -89,-9 -168,-1zm81 258c198,0 359,161 359,359 0,198 -161,359 -359,359 -198,0 -359,-161 -359,-359 0,-198 161,-359 359,-359zm961 550l-16 172c-21,11 -209,91 -233,99 -78,-31 -72,-83 -154,-98 -45,20 -121,97 -141,141 15,82 67,76 98,154 -9,26 -87,211 -99,233l-171 14c-16,108 -13,124 -2,233l172 15c8,16 96,238 99,250 -33,35 -88,80 -98,137 20,44 97,121 141,141 57,-10 101,-65 137,-97 48,12 175,72 250,101l14 168c108,16 124,13 233,2l15 -169c181,-58 172,-72 249,-99 45,34 78,85 139,96 44,-20 121,-97 141,-141 -11,-62 -62,-92 -95,-139 56,-137 34,-47 100,-248l167 -14c16,-108 13,-124 2,-233l-169 -15 -101 -250c33,-38 86,-80 97,-138 -20,-44 -97,-121 -141,-141 -57,10 -101,65 -137,97l-250 -99 -14 -170c-108,-16 -124,-13 -233,-2zm113 358c275,0 498,223 498,498 0,275 -223,498 -498,498 -275,0 -498,-223 -498,-498 0,-275 223,-498 498,-498zm-1016 749c110,0 199,89 199,199 0,110 -89,199 -199,199 -110,0 -199,-89 -199,-199 0,-110 89,-199 199,-199z"/>
  <path class="fil0" d="M720 2016c110,0 199,89 199,199 0,110 -89,199 -199,199 -110,0 -199,-89 -199,-199 0,-110 89,-199 199,-199z"/>
  <path class="fil1" d="M723 2065c85,0 155,69 155,155 0,85 -69,155 -155,155 -85,0 -155,-69 -155,-155 0,-85 69,-155 155,-155zm0 34c66,0 120,54 120,120 0,66 -54,120 -120,120 -66,0 -120,-54 -120,-120 0,-66 54,-120 120,-120z"/>
  <polygon class="fil0" points="0,0 2646,0 2646,2646 0,2646 "/>
 </g>
</svg>
