<?xml version="1.0" encoding="UTF-8"?>
<!DOCTYPE svg PUBLIC "-//W3C//DTD SVG 1.1//EN" "http://www.w3.org/Graphics/SVG/1.1/DTD/svg11.dtd">
<!-- Creator: CorelDRAW 2017 -->
<svg xmlns="http://www.w3.org/2000/svg" xml:space="preserve" width="26.4583mm" height="26.4583mm" version="1.1" style="shape-rendering:geometricPrecision; text-rendering:geometricPrecision; image-rendering:optimizeQuality; fill-rule:evenodd; clip-rule:evenodd"
viewBox="0 0 2646 2646"
 xmlns:xlink="http://www.w3.org/1999/xlink">
 <defs>
  <style type="text/css">
   <![CDATA[
    .fil0 {fill:none}
    .fil3 {fill:#793FF6;fill-opacity:0.701961}
    .fil2 {fill:#85B7F0;fill-opacity:0.701961}
    .fil1 {fill:url(#id0);fill-opacity:0.701961}
   ]]>
  </style>
  <linearGradient id="id0" gradientUnits="userSpaceOnUse" x1="781" y1="2037" x2="781" y2="92">
   <stop offset="0" style="stop-opacity:1; stop-color:#793FF6"/>
   <stop offset="1" style="stop-opacity:1; stop-color:#85BBF0"/>
  </linearGradient>
 </defs>
 <g id="Layer_x0020_1">
  <metadata id="CorelCorpID_0Corel-Layer"/>
  <rect class="fil0" width="2646" height="2646"/>
  <g id="_1865620991456">
   <path class="fil1" d="M1254 649l69 -7c0,-734 -1072,-734 -1072,7 96,0 -159,-8 -159,198 0,110 89,198 198,198 19,0 53,0 53,-18 0,-138 0,-222 -2,-361 0,-14 0,-15 -18,-15 336,-675 853,-321 929,-3 -17,1 -34,5 -35,18 -2,139 -2,222 -2,361 0,7 5,11 13,14 -8,131 -88,216 -306,266 -7,-29 -33,-50 -64,-50 -37,0 -66,30 -66,66 0,64 82,90 119,39l0 0c405,-101 374,-130 370,-318 104,-7 185,-93 185,-198 0,-117 -99,-207 -215,-198zm717 740c321,0 582,261 582,582 0,321 -261,582 -582,582 -321,0 -582,-261 -582,-582 0,-321 261,-582 582,-582zm0 93c270,0 489,219 489,489 0,270 -219,489 -489,489 -270,0 -489,-219 -489,-489 0,-270 219,-489 489,-489zm-1451 -55c195,174 393,174 538,0 89,127 248,110 345,221 4,5 5,-4 0,0 -93,72 -114,258 -110,387 0,3 -834,0 -1191,0 -46,-529 278,-406 417,-609zm267 -1057c208,0 377,226 377,505 0,79 2,161 -37,219 -108,162 -465,-63 -420,272 1,6 -11,-2 -16,-4 -157,-59 -279,-254 -280,-488 0,-279 169,-505 377,-505z"/>
   <path class="fil2" d="M2191 2168l-7 12c-14,27 -48,37 -75,23l-232 -123c-16,-8 -25,-23 -28,-39l-7 -7c-23,-23 -23,-61 0,-84l285 -281c23,-23 61,-23 84,0l10 11c23,23 23,61 0,84l-236 233 183 97c27,14 37,48 22,75z"/>
   <path class="fil3" d="M2328 1912c26,0 46,21 46,46 0,26 -21,46 -46,46 -26,0 -46,-21 -46,-46 0,-26 21,-46 46,-46z"/>
  </g>
 </g>
</svg>
